<?xml version="1.0" standalone="no"?>
<!DOCTYPE svg PUBLIC "-//W3C//DTD SVG 20010904//EN"
 "http://www.w3.org/TR/2001/REC-SVG-20010904/DTD/svg10.dtd">
<svg version="1.0" xmlns="http://www.w3.org/2000/svg"
 width="16.000000pt" height="16.000000pt" viewBox="0 0 16.000000 16.000000"
 preserveAspectRatio="xMidYMid meet">
<metadata>
Created by potrace 1.11, written by Peter Selinger 2001-2013
</metadata>
<g transform="translate(0.000000,16.000000) scale(0.003059,-0.003059)"
fill="#000000" stroke="none">
<path d="M1628 4668 c-297 -414 -387 -540 -404 -563 -57 -77 -278 -385 -292
-405 -9 -14 -75 -106 -146 -205 -70 -99 -133 -187 -139 -195 -12 -18 65 62
292 300 91 96 207 218 257 270 50 52 125 131 166 175 101 106 170 179 345 362
l146 153 35 -37 c36 -40 308 -326 377 -398 77 -80 352 -370 394 -415 180 -191
392 -410 398 -410 2 0 -9 17 -25 38 -16 20 -145 199 -287 397 -142 198 -373
520 -513 715 -141 195 -282 392 -314 438 -33 45 -62 82 -66 82 -4 0 -105 -136
-224 -302z"/>
<path d="M1803 4060 c-45 -10 -79 -34 -112 -80 -22 -31 -134 -215 -234 -385
-7 -11 -19 -31 -28 -45 -9 -14 -26 -41 -37 -60 -10 -19 -200 -336 -421 -703
-220 -368 -401 -670 -401 -673 0 -2 87 -4 193 -4 l192 0 434 735 c239 405 438
732 442 728 4 -5 100 -163 213 -353 l205 -345 -293 -3 -292 -2 -77 -131 c-42
-72 -77 -134 -77 -137 0 -4 204 -7 452 -7 l453 0 144 -242 144 -243 204 0
c204 0 204 0 193 21 -10 17 -613 1020 -1037 1723 -113 188 -163 228 -260 206z"/>
<path d="M3417 3145 c-175 -47 -300 -172 -347 -347 -70 -258 48 -539 269 -640
97 -44 130 -48 469 -48 l323 0 -3 93 -3 92 -320 1 -320 1 -55 25 c-275 127
-251 559 35 640 26 7 152 12 350 12 l310 1 3 93 3 92 -333 -1 c-237 -1 -347
-5 -381 -14z"/>
<path d="M4280 2635 l0 -525 469 0 469 0 -1 93 -2 92 -376 0 -376 0 0 337 c-1
245 2 338 11 339 6 1 175 2 376 3 l365 1 2 93 2 92 -469 0 -470 0 0 -525z"/>
<path d="M330 2913 c-79 -106 -83 -113 -173 -293 -155 -311 -185 -510 -110
-739 61 -187 192 -358 360 -471 72 -48 200 -104 260 -113 17 -3 35 -7 40 -10
11 -7 157 -19 220 -18 259 2 513 107 707 291 l58 55 -23 -40 c-29 -50 -146
-207 -194 -260 -208 -227 -469 -467 -895 -825 -69 -57 -134 -113 -145 -123
-11 -11 -35 -30 -52 -44 -18 -14 -33 -34 -33 -44 0 -11 1 -19 3 -19 18 0 161
50 397 140 251 95 420 154 477 164 10 2 36 9 58 14 112 30 195 37 435 37 218
0 331 -6 473 -26 37 -5 70 -8 75 -7 4 1 30 -1 57 -5 28 -4 70 -10 95 -12 25
-3 63 -8 85 -11 43 -5 81 -10 162 -19 59 -7 79 8 31 24 -199 61 -540 130 -788
158 -136 15 -426 9 -534 -11 -227 -42 -387 -103 -734 -278 -72 -37 -132 -66
-132 -64 0 1 21 18 47 36 27 19 50 37 53 40 3 3 30 23 60 45 30 21 60 43 65
49 6 6 28 23 51 39 22 15 49 35 60 45 10 9 37 30 59 47 40 29 66 51 89 70 6 6
47 39 91 75 44 35 85 69 91 75 6 5 40 35 75 65 252 218 472 478 554 655 42 91
48 121 61 310 3 55 8 108 10 118 1 9 1 17 -1 17 -2 0 -57 -70 -121 -156 -143
-191 -188 -240 -284 -313 -114 -86 -284 -162 -396 -177 -27 -3 -58 -8 -69 -10
-27 -6 -174 -6 -205 0 -14 3 -47 7 -73 11 -241 30 -495 251 -589 512 -65 180
-54 328 42 591 40 109 138 306 196 393 40 61 45 73 32 85 -12 12 -23 2 -78
-73z"/>
<path d="M4595 2645 l0 -75 291 0 291 0 0 75 1 75 -292 0 -291 0 0 -75z"/>
<path d="M3876 1861 c-4 -5 -22 -51 -41 -103 -20 -51 -40 -102 -45 -113 -14
-30 -150 -385 -150 -390 0 -3 29 -5 64 -5 l65 0 29 78 c111 286 169 434 209
530 6 14 -122 18 -131 3z"/>
<path d="M4001 1808 c-72 -187 -175 -450 -196 -500 -16 -40 -20 -58 -11 -58 7
0 23 26 35 58 13 31 34 82 47 113 13 31 24 60 24 64 0 3 29 79 64 168 35 89
67 174 71 190 13 51 -10 27 -34 -35z"/>
<path d="M4047 1828 c-9 -24 -24 -65 -35 -93 -11 -27 -43 -108 -70 -180 -27
-71 -65 -169 -85 -217 -22 -55 -31 -88 -24 -88 7 0 33 53 58 118 203 517 198
502 180 502 -5 0 -16 -19 -24 -42z"/>
<path d="M4140 1858 c0 -10 -91 -251 -125 -333 -7 -16 -32 -79 -55 -140 -24
-60 -45 -116 -47 -122 -4 -10 12 -13 61 -13 63 0 67 1 76 28 6 15 15 35 20 44
6 10 10 23 10 30 0 7 6 24 13 38 7 14 28 67 47 118 19 50 38 92 42 92 4 0 8
-15 9 -32 0 -18 2 -42 4 -53 2 -11 9 -63 15 -115 19 -164 11 -151 88 -148 l66
3 28 75 c16 41 32 84 37 95 11 23 60 151 121 310 23 61 44 116 47 123 4 10
-10 12 -62 10 l-67 -3 -70 -178 c-39 -98 -71 -177 -73 -175 -1 2 -6 34 -10 71
-3 37 -8 76 -10 85 -1 9 -6 44 -9 77 -4 33 -9 69 -11 80 -2 11 -4 26 -4 33 -1
17 -141 17 -141 0z"/>
<path d="M4300 1833 c5 -21 11 -65 14 -98 4 -33 8 -69 11 -80 2 -11 4 -33 4
-50 1 -22 4 -26 12 -18 11 11 4 104 -16 228 -2 11 -4 28 -4 38 -1 9 -7 17 -15
17 -11 0 -12 -8 -6 -37z"/>
<path d="M4336 1848 c2 -13 6 -43 9 -68 14 -120 17 -133 25 -120 7 12 4 102
-5 150 -2 8 -4 25 -4 38 -1 12 -7 22 -15 22 -10 0 -13 -8 -10 -22z"/>
<path d="M4607 1843 c-8 -16 -18 -39 -22 -53 -9 -30 -112 -296 -125 -325 -12
-24 -80 -205 -80 -211 0 -12 22 -1 27 14 16 45 198 513 213 547 16 39 19 55
10 55 -5 0 -16 -12 -23 -27z"/>
<path d="M4608 1747 c-26 -67 -79 -203 -118 -301 -73 -187 -76 -196 -61 -196
5 0 28 48 51 108 77 198 143 367 179 460 15 37 17 52 8 52 -6 0 -33 -56 -59
-123z"/>
<path d="M4825 1852 c-89 -29 -129 -82 -197 -262 -92 -244 -91 -239 -77 -272
19 -47 74 -68 173 -68 99 0 178 24 231 72 32 28 50 65 116 241 l17 47 -120 0
c-137 0 -131 -8 -79 102 22 47 24 55 9 47 -10 -5 -22 -17 -27 -27 -11 -20 -71
-193 -71 -204 0 -5 27 -8 60 -8 33 0 60 -2 60 -4 0 -6 -58 -148 -62 -151 -33
-27 -132 -34 -163 -11 -18 13 -16 21 55 206 83 216 87 220 183 220 66 0 86
-17 68 -56 -6 -14 -11 -27 -11 -29 0 -2 29 -3 65 -3 71 1 83 10 89 66 4 43
-19 78 -64 96 -53 21 -188 20 -255 -2z"/>
<path d="M1992 1562 c-84 -165 -152 -302 -152 -306 0 -3 28 -6 63 -6 l63 0 65
128 66 127 59 3 c87 5 103 -2 99 -38 -2 -16 -25 -70 -50 -118 -25 -48 -45 -91
-45 -95 0 -4 29 -7 64 -7 l64 0 51 103 c58 115 64 156 27 184 l-24 19 44 13
c56 17 86 45 123 120 33 64 37 91 21 122 -6 10 -7 19 -2 19 5 0 15 -14 22 -31
12 -28 10 -37 -21 -100 -18 -38 -41 -77 -51 -86 -10 -8 -15 -20 -12 -24 3 -5
-1 -6 -9 -3 -19 7 -32 -12 -16 -22 8 -5 9 -3 4 6 -6 10 -4 12 9 7 39 -15 95
34 137 120 37 77 31 116 -25 145 -21 11 -21 11 0 -13 12 -13 24 -33 28 -44 7
-26 -46 -140 -80 -172 -35 -32 -43 -29 -12 5 37 39 77 124 74 156 -4 33 -35
69 -54 61 -8 -3 -21 0 -30 7 -10 9 -66 14 -181 16 l-167 4 -152 -300z m394
194 c19 -15 18 -16 -11 -71 -16 -31 -41 -63 -55 -70 -25 -12 -170 -22 -170
-10 0 3 18 41 40 85 l40 80 68 0 c44 0 75 -5 88 -14z"/>
<path d="M2205 1689 c-20 -39 -34 -73 -31 -76 8 -8 9 -7 50 69 39 72 41 78 27
78 -5 0 -25 -32 -46 -71z"/>
<path d="M2252 1708 c-34 -62 -47 -98 -34 -98 5 0 24 30 43 68 44 87 42 82 31
82 -6 0 -23 -24 -40 -52z"/>
<path d="M2828 1842 c-26 -9 -67 -31 -91 -48 -40 -28 -55 -54 -157 -255 -62
-123 -116 -228 -120 -234 -4 -5 -11 -20 -14 -32 -7 -22 -5 -23 56 -23 l64 0
65 128 66 127 92 3 c50 1 91 0 91 -3 0 -3 -27 -59 -60 -124 -33 -65 -60 -121
-60 -125 0 -3 28 -6 63 -6 l62 0 128 249 c70 137 127 256 127 264 0 32 -24 66
-55 82 -46 21 -195 20 -257 -3z m162 -87 c10 -12 6 -27 -23 -82 l-35 -68 -91
-3 c-50 -1 -91 0 -91 3 0 3 14 34 31 68 33 65 56 89 77 82 6 -2 12 0 12 5 0
16 106 12 120 -5z"/>
<path d="M2888 1750 c-16 -10 -78 -114 -78 -132 0 -25 21 0 48 56 17 35 39 69
49 75 10 6 14 10 8 10 -5 0 -18 -4 -27 -9z"/>
<path d="M2832 1738 c-19 -25 -63 -120 -58 -126 8 -7 9 -6 50 71 20 37 32 67
27 67 -4 0 -13 -6 -19 -12z"/>
<path d="M3408 1842 c-26 -9 -67 -31 -91 -49 -40 -28 -56 -52 -146 -232 -56
-110 -101 -212 -101 -226 0 -33 42 -73 86 -81 18 -3 71 -4 116 -2 136 6 229
61 284 169 l24 49 -68 0 -69 0 -23 -50 c-27 -58 -65 -80 -137 -80 -61 0 -77
10 -68 41 13 40 186 369 195 369 4 0 -35 -81 -86 -180 -93 -178 -103 -203 -84
-215 6 -3 10 1 10 10 0 9 42 99 94 200 52 100 92 186 88 191 -4 4 -1 4 6 0 6
-4 12 -2 12 3 0 13 99 14 119 2 13 -9 12 -24 -4 -63 -6 -16 0 -18 56 -18 61 0
65 2 82 31 33 58 18 111 -38 135 -48 20 -197 17 -257 -4z"/>
<path d="M5167 1841 c30 -28 39 -67 24 -106 -14 -38 -14 -45 -1 -45 5 0 16 21
23 48 17 57 9 81 -36 107 l-32 18 22 -22z"/>
<path d="M3139 1819 c11 -19 19 -45 16 -58 -2 -12 -61 -132 -130 -266 -70
-138 -120 -245 -113 -245 15 0 262 484 265 518 1 14 -10 36 -29 55 l-30 32 21
-36z"/>
<path d="M3756 1826 c24 -39 25 -52 7 -98 -8 -21 -13 -41 -10 -44 9 -9 38 42
43 77 5 29 1 39 -27 64 l-32 30 19 -29z"/>
<path d="M5130 1847 c0 -5 7 -16 16 -25 16 -16 16 -74 -1 -114 -4 -10 -3 -18
3 -18 13 0 35 54 35 86 0 15 -12 37 -27 52 -14 15 -26 23 -26 19z"/>
<path d="M3172 1823 c35 -41 30 -56 -103 -318 -77 -152 -124 -255 -116 -255 7
0 20 15 28 33 8 17 64 129 124 247 61 121 109 226 108 241 -1 26 -30 69 -47
69 -5 0 -2 -8 6 -17z"/>
<path d="M3724 1818 c20 -28 20 -51 0 -89 -8 -17 -13 -36 -11 -42 6 -17 47 54
47 81 0 25 -27 72 -42 72 -5 0 -2 -10 6 -22z"/>
<path d="M4852 1753 c-20 -18 -152 -344 -152 -375 0 -10 5 -18 10 -18 6 0 10
7 10 16 0 9 6 30 14 47 8 18 35 86 60 152 25 66 54 137 65 158 22 42 21 44 -7
20z"/>
<path d="M3458 1743 c-23 -26 -188 -348 -188 -366 0 -9 4 -18 8 -21 5 -3 9 1
9 8 0 19 170 353 195 384 16 19 -7 15 -24 -5z"/>
<path d="M5076 1538 c-59 -157 -68 -177 -94 -206 -15 -16 -42 -37 -59 -46 -18
-9 -33 -19 -33 -22 0 -2 9 0 19 6 26 13 34 13 25 -1 -15 -24 96 45 118 73 20
26 108 238 108 261 0 4 -4 7 -8 7 -5 0 -31 -57 -58 -127 -36 -93 -58 -136 -83
-160 -19 -18 -38 -33 -43 -33 -5 0 6 13 25 30 25 22 44 56 76 142 24 62 47
121 52 131 7 12 5 17 -4 17 -7 0 -26 -33 -41 -72z"/>
<path d="M2394 1534 c26 -26 18 -64 -37 -176 -30 -60 -48 -108 -42 -108 16 0
115 205 115 239 0 15 -8 35 -18 44 -24 22 -39 22 -18 1z"/>
<path d="M2435 1528 c23 -34 19 -50 -40 -168 -33 -65 -50 -110 -43 -110 16 0
118 201 118 230 0 28 -16 56 -35 64 -14 5 -14 4 0 -16z"/>
<path d="M4141 1470 c-59 -149 -81 -213 -76 -218 3 -3 9 -1 13 4 8 9 15 27 77
190 15 39 25 80 23 90 -2 12 -17 -13 -37 -66z"/>
<path d="M4783 1498 c-14 -18 -43 -100 -43 -121 0 -36 16 -14 38 54 23 69 25
92 5 67z"/>
<path d="M2107 1493 c-42 -70 -124 -243 -114 -243 7 0 40 56 75 125 34 69 58
125 53 125 -6 0 -12 -3 -14 -7z"/>
<path d="M2142 1488 c-27 -34 -121 -238 -109 -238 7 0 40 56 75 125 34 69 58
125 53 125 -5 0 -13 -6 -19 -12z"/>
<path d="M2705 1491 c-39 -64 -122 -241 -112 -241 6 0 40 56 74 125 35 69 59
125 54 125 -6 0 -12 -4 -16 -9z"/>
<path d="M2742 1488 c-26 -33 -121 -238 -110 -238 7 0 41 56 75 125 35 69 59
125 54 125 -5 0 -13 -6 -19 -12z"/>
<path d="M3574 1428 c-25 -56 -78 -115 -126 -139 -21 -11 -38 -22 -38 -25 0
-2 9 0 19 6 25 13 34 13 25 -1 -7 -12 45 13 97 48 31 20 99 122 99 147 0 20
-20 -2 -48 -53 -32 -59 -92 -121 -115 -121 -7 0 -3 6 8 12 32 18 60 50 88 102
28 51 33 66 19 66 -5 0 -18 -19 -28 -42z"/>
<path d="M4172 1450 c-49 -124 -73 -192 -67 -198 3 -3 10 0 15 8 19 31 72 189
67 202 -3 8 -8 4 -15 -12z"/>
</g>
</svg>
